<svg width="52" height="52" viewBox="0 0 52 52" fill="none" xmlns="http://www.w3.org/2000/svg">
<path d="M47.6018 39.7149C47.6018 40.4949 47.4285 41.2966 47.0602 42.0766C46.6918 42.8566 46.2152 43.5933 45.5868 44.2866C44.5252 45.4566 43.3552 46.3016 42.0335 46.8433C40.7335 47.3849 39.3252 47.6666 37.8085 47.6666C35.5985 47.6666 33.2368 47.1466 30.7452 46.0849C28.2535 45.0233 25.7618 43.5933 23.2918 41.7949C20.8002 39.9749 18.4385 37.9599 16.1852 35.7283C13.9535 33.4749 11.9385 31.1133 10.1402 28.6433C8.3635 26.1733 6.9335 23.7033 5.8935 21.2549C4.8535 18.7849 4.3335 16.4233 4.3335 14.1699C4.3335 12.6966 4.5935 11.2883 5.1135 9.98825C5.6335 8.66659 6.45683 7.45325 7.60516 6.36992C8.99183 5.00492 10.5085 4.33325 12.1118 4.33325C12.7185 4.33325 13.3252 4.46325 13.8668 4.72325C14.4302 4.98325 14.9285 5.37325 15.3185 5.93659L20.3452 13.0216C20.7352 13.5633 21.0168 14.0616 21.2118 14.5383C21.4068 14.9933 21.5152 15.4483 21.5152 15.8599C21.5152 16.3799 21.3635 16.8999 21.0602 17.3983C20.7785 17.8966 20.3668 18.4166 19.8468 18.9366L18.2002 20.6483C17.9618 20.8866 17.8535 21.1683 17.8535 21.5149C17.8535 21.6883 17.8752 21.8399 17.9185 22.0133C17.9835 22.1866 18.0485 22.3166 18.0918 22.4466C18.4818 23.1616 19.1535 24.0933 20.1068 25.2199C21.0818 26.3466 22.1218 27.4949 23.2485 28.6433C24.4185 29.7916 25.5452 30.8533 26.6935 31.8283C27.8202 32.7816 28.7518 33.4316 29.4885 33.8216C29.5968 33.8649 29.7268 33.9299 29.8785 33.9949C30.0518 34.0599 30.2252 34.0816 30.4202 34.0816C30.7885 34.0816 31.0702 33.9516 31.3085 33.7133L32.9552 32.0883C33.4968 31.5466 34.0168 31.1349 34.5152 30.8749C35.0135 30.5716 35.5118 30.4199 36.0535 30.4199C36.4652 30.4199 36.8985 30.5066 37.3752 30.7016C37.8518 30.8966 38.3502 31.1783 38.8918 31.5466L46.0635 36.6383C46.6268 37.0283 47.0168 37.4833 47.2552 38.0249C47.4718 38.5666 47.6018 39.1083 47.6018 39.7149Z" stroke="#233460" stroke-width="3" stroke-miterlimit="10"/>
<path d="M41.645 4.875H49.77" stroke="#F4A84F" stroke-width="3" stroke-linecap="round" stroke-linejoin="round"/>
<path d="M31.353 5.23603L32.7072 6.49992L36.7697 2.70825" stroke="#F4A84F" stroke-width="3" stroke-linecap="round" stroke-linejoin="round"/>
<path d="M41.645 15.7083H49.77" stroke="#F4A84F" stroke-width="3" stroke-linecap="round" stroke-linejoin="round"/>
<path d="M31.353 15.5278L32.7072 16.7917L36.7697 13" stroke="#F4A84F" stroke-width="3" stroke-linecap="round" stroke-linejoin="round"/>
</svg>
