<svg width="52" height="52" viewBox="0 0 52 52" fill="none" xmlns="http://www.w3.org/2000/svg">
<path d="M47.6668 24.9166V33.5833C47.6668 41.1666 43.3335 44.4166 36.8335 44.4166H15.1668C8.66683 44.4166 4.3335 41.1666 4.3335 33.5833V18.4166C4.3335 10.8333 8.66683 7.58325 15.1668 7.58325H26.0002" stroke="#233460" stroke-width="3" stroke-miterlimit="10" stroke-linecap="round" stroke-linejoin="round"/>
<path d="M15.1665 19.5L21.9482 24.9167C24.1798 26.6933 27.8415 26.6933 30.0732 24.9167" stroke="#233460" stroke-width="3" stroke-miterlimit="10" stroke-linecap="round" stroke-linejoin="round"/>
<path d="M42.2065 6.11012L42.8132 7.3451C43.1165 7.95177 43.8748 8.51511 44.5465 8.64511L45.3698 8.77511C47.8398 9.18678 48.4248 11.0068 46.6481 12.8051L45.8898 13.5634C45.3915 14.0834 45.1098 15.0801 45.2615 15.7734L45.3698 16.2284C46.0415 19.2184 44.4598 20.3668 41.8598 18.8068L41.2965 18.4818C40.6248 18.0918 39.5415 18.0918 38.8698 18.4818L38.3065 18.8068C35.6848 20.3884 34.1031 19.2184 34.7965 16.2284L34.9048 15.7734C35.0564 15.0801 34.7748 14.0834 34.2765 13.5634L33.5181 12.8051C31.7415 11.0068 32.3265 9.18678 34.7965 8.77511L35.6198 8.64511C36.2698 8.53678 37.0498 7.95177 37.3531 7.3451L37.9598 6.11012C39.1298 3.74845 41.0365 3.74845 42.2065 6.11012Z" stroke="#F4A84F" stroke-width="3" stroke-linecap="round" stroke-linejoin="round"/>
</svg>
