<svg width="52" height="52" viewBox="0 0 52 52" fill="none" xmlns="http://www.w3.org/2000/svg">
<path d="M37.375 44.4167H14.625C5.525 44.4167 3.25 42.4005 3.25 34.3357V18.206C3.25 10.1412 5.525 8.125 14.625 8.125H37.375C46.475 8.125 48.75 10.1412 48.75 18.206V34.3357C48.75 42.4005 46.475 44.4167 37.375 44.4167Z" stroke="#233460" stroke-width="3" stroke-linecap="round" stroke-linejoin="round"/>
<path d="M30.3335 17.3333H41.1668" stroke="#F4A84F" stroke-width="3" stroke-linecap="round" stroke-linejoin="round"/>
<path d="M32.5 26H41.1667" stroke="#F4A84F" stroke-width="3" stroke-linecap="round" stroke-linejoin="round"/>
<path d="M36.8335 34.6665H41.1668" stroke="#F4A84F" stroke-width="3" stroke-linecap="round" stroke-linejoin="round"/>
<path d="M18.4168 25.1766C20.5827 25.1766 22.3385 23.4208 22.3385 21.2549C22.3385 19.089 20.5827 17.3333 18.4168 17.3333C16.2509 17.3333 14.4951 19.089 14.4951 21.2549C14.4951 23.4208 16.2509 25.1766 18.4168 25.1766Z" stroke="#233460" stroke-width="3" stroke-linecap="round" stroke-linejoin="round"/>
<path d="M26.0002 34.2984C25.6968 32.0198 23.2052 30.2283 20.0635 30.024C18.9802 29.9454 17.8752 29.9454 16.7702 30.024C13.6285 30.244 11.1368 32.0198 10.8335 34.2984" stroke="#233460" stroke-width="3" stroke-linecap="round" stroke-linejoin="round"/>
</svg>
