<svg width="52" height="52" viewBox="0 0 52 52" fill="none" xmlns="http://www.w3.org/2000/svg">
<path d="M19.5002 47.6668H32.5002C43.3335 47.6668 47.6668 43.3335 47.6668 32.5002V19.5002C47.6668 8.66683 43.3335 4.3335 32.5002 4.3335H19.5002C8.66683 4.3335 4.3335 8.66683 4.3335 19.5002V32.5002C4.3335 43.3335 8.66683 47.6668 19.5002 47.6668Z" stroke="#233460" stroke-width="3" stroke-linecap="round" stroke-linejoin="round"/>
<path d="M4.3335 28.1667H12.4802C14.1268 28.1667 15.6218 29.0984 16.3585 30.5717L18.2868 34.45C19.5002 36.8334 21.6668 36.8334 22.1868 36.8334H29.8352C31.4818 36.8334 32.9768 35.9017 33.7135 34.4284L35.6418 30.55C36.3785 29.0767 37.8735 28.145 39.5202 28.145H47.6235" stroke="#233460" stroke-width="3" stroke-linecap="round" stroke-linejoin="round"/>
<path d="M24.9165 12.4585H36.2915" stroke="#F4A84F" stroke-width="3" stroke-linecap="round" stroke-linejoin="round"/>
<path d="M14.625 12.8193L15.9792 14.0832L20.0417 10.2915" stroke="#F4A84F" stroke-width="3" stroke-linecap="round" stroke-linejoin="round"/>
<path d="M24.9165 21.6665H36.2915" stroke="#F4A84F" stroke-width="3" stroke-linecap="round" stroke-linejoin="round"/>
<path d="M14.625 21.4863L15.9792 22.7502L20.0417 18.9585" stroke="#F4A84F" stroke-width="3" stroke-linecap="round" stroke-linejoin="round"/>
</svg>
