<svg width="52" height="52" viewBox="0 0 52 52" fill="none" xmlns="http://www.w3.org/2000/svg">
<path d="M36.7466 13.3682C41.0799 16.3798 44.0699 21.1682 44.6766 26.6932" stroke="#233460" stroke-width="3" stroke-linecap="round" stroke-linejoin="round"/>
<path d="M7.56152 26.8016C8.12486 21.2982 11.0715 16.5099 15.3615 13.4766" stroke="#233460" stroke-width="3" stroke-linecap="round" stroke-linejoin="round"/>
<path d="M17.7451 45.3701C20.2585 46.6485 23.1185 47.3635 26.1301 47.3635C29.0335 47.3635 31.7635 46.7135 34.2118 45.5218" stroke="#233460" stroke-width="3" stroke-linecap="round" stroke-linejoin="round"/>
<path d="M33.0417 15.9318C33.0417 16.1755 32.9874 16.426 32.8721 16.6698C32.7569 16.9135 32.6077 17.1437 32.411 17.3604C32.0788 17.726 31.7126 17.9901 31.299 18.1594C30.8921 18.3286 30.4513 18.4167 29.9767 18.4167C29.285 18.4167 28.5459 18.2542 27.766 17.9224C26.9862 17.5906 26.2064 17.1437 25.4334 16.5818C24.6536 16.013 23.9144 15.3833 23.2092 14.6859C22.5108 13.9818 21.8801 13.2437 21.3173 12.4719C20.7613 11.7 20.3137 10.9281 19.9882 10.163C19.6627 9.39115 19.5 8.65312 19.5 7.94896C19.5 7.48854 19.5814 7.04844 19.7441 6.64219C19.9069 6.22917 20.1645 5.85 20.5239 5.51146C20.9579 5.0849 21.4326 4.875 21.9344 4.875C22.1242 4.875 22.3141 4.91563 22.4836 4.99688C22.6599 5.07813 22.8159 5.2 22.938 5.37604L24.5112 7.5901C24.6332 7.75937 24.7214 7.9151 24.7824 8.06406C24.8434 8.20625 24.8773 8.34844 24.8773 8.47708C24.8773 8.63958 24.8299 8.80208 24.7349 8.95781C24.6468 9.11354 24.5179 9.27604 24.3552 9.43854L23.8398 9.97344C23.7653 10.0479 23.7313 10.1359 23.7313 10.2443C23.7313 10.2984 23.7381 10.3458 23.7517 10.4C23.772 10.4542 23.7924 10.4948 23.8059 10.5354C23.928 10.7589 24.1382 11.05 24.4366 11.4021C24.7417 11.7542 25.0672 12.113 25.4198 12.4719C25.786 12.8307 26.1386 13.1625 26.498 13.4672C26.8506 13.7651 27.1422 13.9682 27.3727 14.0901C27.4067 14.1036 27.4473 14.124 27.4948 14.1443C27.5491 14.1646 27.6033 14.1714 27.6643 14.1714C27.7796 14.1714 27.8678 14.1307 27.9424 14.0562L28.4577 13.5484C28.6272 13.3792 28.79 13.2505 28.9459 13.1693C29.1019 13.0745 29.2579 13.0271 29.4274 13.0271C29.5562 13.0271 29.6919 13.0542 29.841 13.1151C29.9902 13.176 30.1462 13.2641 30.3157 13.3792L32.5602 14.9703C32.7365 15.0922 32.8586 15.2344 32.9332 15.4036C33.001 15.5729 33.0417 15.7422 33.0417 15.9318Z" stroke="#233460" stroke-width="2" stroke-miterlimit="10"/>
<path d="M10.4652 43.16C13.7918 43.16 16.4886 40.4632 16.4886 37.1366C16.4886 33.81 13.7918 31.1133 10.4652 31.1133C7.13863 31.1133 4.44189 33.81 4.44189 37.1366C4.44189 40.4632 7.13863 43.16 10.4652 43.16Z" stroke="#233460" stroke-width="3" stroke-linecap="round" stroke-linejoin="round"/>
<path d="M19 27.4048L23 24V35" stroke="#F4A84F" stroke-width="3" stroke-linecap="round" stroke-linejoin="round"/>
<path d="M27 35V29L29.5 31.7273L32 29V35" stroke="#F4A84F" stroke-width="3" stroke-linecap="round" stroke-linejoin="round"/>
<path d="M41.5351 43.16C44.8616 43.16 47.5584 40.4632 47.5584 37.1366C47.5584 33.81 44.8616 31.1133 41.5351 31.1133C38.2085 31.1133 35.5117 33.81 35.5117 37.1366C35.5117 40.4632 38.2085 43.16 41.5351 43.16Z" stroke="#233460" stroke-width="3" stroke-linecap="round" stroke-linejoin="round"/>
</svg>
