<svg width="52" height="52" viewBox="0 0 52 52" fill="none" xmlns="http://www.w3.org/2000/svg">
<path d="M45.5 15.1668V36.8335C45.5 43.3335 42.25 47.6668 34.6667 47.6668H17.3333C9.75 47.6668 6.5 43.3335 6.5 36.8335V15.1668C6.5 8.66683 9.75 4.3335 17.3333 4.3335H34.6667C42.25 4.3335 45.5 8.66683 45.5 15.1668Z" stroke="#233460" stroke-width="3" stroke-miterlimit="10" stroke-linecap="round" stroke-linejoin="round"/>
<path d="M33.5832 4.3335V21.3635C33.5832 22.3168 32.4564 22.7935 31.7631 22.1651L26.7366 17.5286C26.3249 17.1386 25.6748 17.1386 25.2631 17.5286L20.2366 22.1651C19.5432 22.7935 18.4165 22.3168 18.4165 21.3635V4.3335H33.5832Z" stroke="#F4A84F" stroke-width="3" stroke-miterlimit="10" stroke-linecap="round" stroke-linejoin="round"/>
<path d="M28.7085 30.3335H37.9168" stroke="#233460" stroke-width="3" stroke-miterlimit="10" stroke-linecap="round" stroke-linejoin="round"/>
<path d="M19.5 39H37.9167" stroke="#233460" stroke-width="3" stroke-miterlimit="10" stroke-linecap="round" stroke-linejoin="round"/>
</svg>
